<svg width="48" height="48" viewBox="0 0 48 48" fill="none" xmlns="http://www.w3.org/2000/svg">
<path d="M35.8649 11.3615C35.2761 11.3615 34.7982 10.8837 34.7982 10.2949V1.06666C34.7982 0.477864 35.2761 0 35.8649 0C36.4537 0 36.9315 0.477864 36.9315 1.06666V10.2949C36.9315 10.8837 36.4542 11.3615 35.8649 11.3615Z" fill="#333333"/>
<path d="M1.06666 38.0702C0.477864 38.0702 0 37.5923 0 37.0035V1.06666C0 0.477864 0.477864 0 1.06666 0C1.65546 0 2.13332 0.477864 2.13332 1.06666V37.0035C2.13332 37.5923 1.65546 38.0702 1.06666 38.0702Z" fill="#333333"/>
<path d="M41.3992 47.8571C40.8105 47.8571 40.3326 47.3793 40.3326 46.7905C40.3326 46.2017 40.8105 45.7238 41.3992 45.7238C43.4958 45.7238 45.259 44.2726 45.739 42.3228H35.8649C35.2761 42.3228 34.7982 41.8449 34.7982 41.2561C34.7982 40.6673 35.2761 40.1895 35.8649 40.1895H46.9341C47.5229 40.1895 48.0008 40.6673 48.0008 41.2561C48.0008 44.8961 45.0392 47.8571 41.3992 47.8571Z" fill="#333333"/>
<path d="M35.8649 42.3187C35.2761 42.3187 34.7982 41.8408 34.7982 41.252V28.2825C34.7982 27.6937 35.2761 27.2158 35.8649 27.2158C36.4537 27.2158 36.9315 27.6937 36.9315 28.2825V41.252C36.9315 41.8413 36.4542 42.3187 35.8649 42.3187Z" fill="#333333"/>
<path d="M6.60103 47.8566C2.96158 47.8566 0 44.8955 0 41.2555V37.0049C0 36.4161 0.477864 35.9382 1.06666 35.9382C1.65546 35.9382 2.13332 36.4161 2.13332 37.0049V41.2555C2.13332 43.719 4.13758 45.7232 6.60103 45.7232C7.18983 45.7232 7.66769 46.2011 7.66769 46.7899C7.66769 47.3787 7.19036 47.8566 6.60103 47.8566Z" fill="#333333"/>
<path d="M41.3978 47.8567H6.60066C6.01186 47.8567 5.534 47.3788 5.534 46.79C5.534 46.2013 6.01186 45.7234 6.60066 45.7234H41.3978C41.9866 45.7234 42.4645 46.2013 42.4645 46.79C42.4645 47.3788 41.9871 47.8567 41.3978 47.8567Z" fill="#333333"/>
<path d="M6.60066 47.8571C6.01186 47.8571 5.534 47.3793 5.534 46.7905C5.534 46.2017 6.01186 45.7238 6.60066 45.7238C9.06411 45.7238 11.0684 43.7196 11.0684 41.2561C11.0684 40.6673 11.5462 40.1895 12.135 40.1895H35.8629C36.4517 40.1895 36.9296 40.6673 36.9296 41.2561C36.9296 41.8449 36.4517 42.3228 35.8629 42.3228H13.1158C12.6049 45.4572 9.87744 47.8571 6.60066 47.8571Z" fill="#333333"/>
<path d="M22.2599 27.6966H8.46638C7.87758 27.6966 7.39972 27.2187 7.39972 26.6299C7.39972 26.0411 7.87758 25.5632 8.46638 25.5632H22.2599C22.8487 25.5632 23.3266 26.0411 23.3266 26.6299C23.3266 27.2187 22.8492 27.6966 22.2599 27.6966Z" fill="#333333"/>
<path d="M37.887 21.4691C37.3147 21.4691 36.8475 21.0184 36.8214 20.4526C36.2555 20.4264 35.8049 19.9592 35.8049 19.387C35.8049 18.7982 36.2827 18.3203 36.8715 18.3203C38.0198 18.3203 38.9537 19.2542 38.9537 20.4024C38.9537 20.9912 38.4763 21.4691 37.887 21.4691Z" fill="#333333"/>
<path d="M35.8649 16.8606C35.2761 16.8606 34.7982 16.3828 34.7982 15.794V14.5364C34.7982 13.9476 35.2761 13.4697 35.8649 13.4697C36.4537 13.4697 36.9315 13.9476 36.9315 14.5364V15.794C36.9315 16.3828 36.4542 16.8606 35.8649 16.8606Z" fill="#333333"/>
<path d="M36.8727 20.452H34.8578C33.7095 20.452 32.7756 19.5182 32.7756 18.3699V16.8067C32.7756 15.6585 33.7095 14.7246 34.8578 14.7246H36.8727C38.0209 14.7246 38.9548 15.6585 38.9548 16.8067C38.9548 17.3955 38.4769 17.8734 37.8881 17.8734C37.3164 17.8734 36.8492 17.4233 36.8225 16.8579H34.9084V18.3193H36.8727C37.4615 18.3193 37.9393 18.7971 37.9393 19.3859C37.9393 19.9747 37.4615 20.452 36.8727 20.452Z" fill="#333333"/>
<path d="M35.8649 25.3069C35.2761 25.3069 34.7982 24.8291 34.7982 24.2403V22.9827C34.7982 22.3939 35.2761 21.916 35.8649 21.916C36.4537 21.916 36.9315 22.3939 36.9315 22.9827V24.2403C36.9315 24.8291 36.4542 25.3069 35.8649 25.3069Z" fill="#333333"/>
<path d="M36.8727 24.0487H34.8578C33.7095 24.0487 32.7756 23.1148 32.7756 21.9666C32.7756 21.3778 33.2535 20.8999 33.8423 20.8999C34.414 20.8999 34.8812 21.35 34.9079 21.9154H36.822V20.4028C36.822 19.814 37.2999 19.3362 37.8887 19.3362C38.4775 19.3362 38.9553 19.814 38.9553 20.4028V21.9666C38.9548 23.1143 38.0209 24.0487 36.8727 24.0487Z" fill="#333333"/>
<path d="M28.9436 34.167H8.46638C7.87758 34.167 7.39972 33.6891 7.39972 33.1004C7.39972 32.5116 7.87758 32.0337 8.46638 32.0337H28.9436C29.5324 32.0337 30.0103 32.5116 30.0103 33.1004C30.0103 33.6891 29.5324 34.167 28.9436 34.167Z" fill="#333333"/>
<path d="M31.5146 5.81839C31.2693 5.81839 31.0239 5.73412 30.825 5.56559L27.1648 2.4648L23.505 5.56559C23.1072 5.90265 22.5237 5.90265 22.1259 5.56559L18.4656 2.4648L14.8054 5.56559C14.4075 5.90265 13.824 5.90265 13.4262 5.56559L9.76592 2.4648L6.10621 5.56559C5.70834 5.90265 5.12488 5.90265 4.72701 5.56559L0.377172 1.88081C-0.0724259 1.50001 -0.127892 0.826946 0.252906 0.377348C0.633704 -0.0727828 1.30677 -0.127716 1.75636 0.253082L5.41661 3.35387L9.07632 0.253082C9.47419 -0.0839828 10.0577 -0.0839828 10.4555 0.253082L14.1158 3.35387L17.776 0.253082C18.1739 -0.0839828 18.7573 -0.0839828 19.1552 0.253082L22.8155 3.35387L26.4752 0.253082C26.873 -0.0839828 27.4565 -0.0839828 27.8544 0.253082L31.5146 3.35387L35.1743 0.253082C35.6239 -0.127183 36.2964 -0.0722495 36.6778 0.377348C37.0586 0.826946 37.0026 1.50001 36.5535 1.88081L32.2042 5.56559C32.0053 5.73412 31.7599 5.81839 31.5146 5.81839Z" fill="#333333"/>
<path d="M35.8633 29.3506C30.3156 29.3506 25.802 24.837 25.802 19.2893C25.802 13.7416 30.3156 9.22803 35.8633 9.22803C41.4105 9.22803 45.924 13.7416 45.924 19.2893C45.924 24.837 41.4105 29.3506 35.8633 29.3506ZM35.8633 11.3613C31.4921 11.3613 27.9353 14.9176 27.9353 19.2893C27.9353 23.661 31.4921 27.2173 35.8633 27.2173C40.2345 27.2173 43.7907 23.6605 43.7907 19.2893C43.7907 14.9176 40.2345 11.3613 35.8633 11.3613Z" fill="#333333"/>
<path d="M18.5005 21.2261H8.46638C7.87758 21.2261 7.39972 20.7482 7.39972 20.1594C7.39972 19.5706 7.87758 19.0928 8.46638 19.0928H18.5005C19.0893 19.0928 19.5671 19.5706 19.5671 20.1594C19.5671 20.7482 19.0893 21.2261 18.5005 21.2261Z" fill="#333333"/>
<path d="M22.2599 14.7605H8.46638C7.87758 14.7605 7.39972 14.2827 7.39972 13.6939C7.39972 13.1051 7.87758 12.6272 8.46638 12.6272H22.2599C22.8487 12.6272 23.3266 13.1051 23.3266 13.6939C23.3266 14.2827 22.8492 14.7605 22.2599 14.7605Z" fill="#333333"/>
</svg>
