<svg width="48" height="48" viewBox="0 0 48 48" fill="none" xmlns="http://www.w3.org/2000/svg">
<circle cx="24" cy="24" r="22" stroke="#45413E" stroke-width="4"/>
<path d="M23.5 9.5C23.5 9.5 28.4923 9.28321 29.985 13.4994C32.985 21.9733 28.485 25.9726 27.985 27.9726C27.4849 29.9726 27.9849 32.4726 28.485 32.4726C35.9851 36.9726 41.485 35.9726 41.485 35.9726C41.485 35.9726 35.9851 45.4726 22.985 45.4726C11.0319 45.4726 6.42029 36.8414 6.01465 36.0332C7.56203 36.1545 12.3555 36.1503 18.485 32.4726C18.985 32.4726 19.485 29.9726 18.985 27.9726C18.4849 25.9726 13.9849 21.9733 16.985 13.4994C18.4776 9.28321 23.5 9.5 23.5 9.5Z" fill="#45413E"/>
</svg>
