<svg width="82" height="85" viewBox="0 0 82 85" fill="none" xmlns="http://www.w3.org/2000/svg">
<path d="M25.5095 12.7699V6.13527C25.5095 3.04359 23.0032 0.537292 19.9115 0.537292C16.8198 0.537292 14.3135 3.04359 14.3135 6.13527V12.7699V19.1972V20.6485C14.3135 23.7402 16.8198 26.2465 19.9115 26.2465C23.0032 26.2465 25.5095 23.7402 25.5095 20.6485V19.1972V12.7699Z" fill="white"/>
<path d="M9.7522 30.6005H71.1226V73.933H9.7522V30.6005Z" fill="white"/>
<path d="M65.732 12.7699V6.13527C65.732 3.04359 63.2257 0.537292 60.134 0.537292C57.0423 0.537292 54.536 3.04359 54.536 6.13527V12.7699V19.1972V20.6485C54.536 23.7402 57.0423 26.2465 60.134 26.2465C63.2257 26.2465 65.732 23.7402 65.732 20.6485V19.1972V12.7699Z" fill="white"/>
<path d="M14.3135 19.1972V12.7699H0.00756836V84.7143H81.2819V12.7699H65.732V19.1972H75.8913V78.909H4.98355V19.1972H14.3135Z" fill="white"/>
<path d="M25.5095 12.7699V19.1972H54.536V12.7699H25.5095Z" fill="white"/>
</svg>
