<svg width="85" height="87" viewBox="0 0 85 87" fill="none" xmlns="http://www.w3.org/2000/svg">
<path d="M16.3059 21.6485V7.13527M16.3059 21.6485C16.3059 24.7402 18.8122 27.2465 21.9039 27.2465C24.9956 27.2465 27.5019 24.7402 27.5019 21.6485M16.3059 21.6485V20.1972M27.5019 21.6485V7.13527M27.5019 21.6485V20.1972M27.5019 7.13527C27.5019 4.04359 24.9956 1.53729 21.9039 1.53729C18.8122 1.53729 16.3059 4.04359 16.3059 7.13527M27.5019 7.13527V13.7699M16.3059 7.13527V13.7699M56.5284 21.6485V7.13527M56.5284 21.6485C56.5284 24.7402 59.0347 27.2465 62.1264 27.2465C65.2181 27.2465 67.7244 24.7402 67.7244 21.6485M56.5284 21.6485V20.1972M67.7244 21.6485V7.13527M67.7244 21.6485V20.1972M67.7244 7.13527C67.7244 4.04359 65.2181 1.53729 62.1264 1.53729C59.0347 1.53729 56.5284 4.04359 56.5284 7.13527M67.7244 7.13527V13.7699M56.5284 7.13527V13.7699M67.7244 13.7699H83.2743V85.7143H2V13.7699H16.3059M67.7244 13.7699V20.1972M16.3059 13.7699V20.1972M27.5019 13.7699H56.5284M27.5019 13.7699V20.1972M56.5284 13.7699V20.1972M67.7244 20.1972H77.8837V79.909H6.97598V20.1972H16.3059M27.5019 20.1972C39.6876 20.1972 56.5284 20.1972 56.5284 20.1972M27.5019 20.1972H56.5284M11.7446 31.6005H73.115V74.933H11.7446V31.6005Z" stroke="white" stroke-width="2.49"/>
</svg>
