<svg width="30" height="27" viewBox="0 0 30 27" fill="none" xmlns="http://www.w3.org/2000/svg">
<path d="M0.595831 20.6964V16.0515H2.86413V0.987597H1.06244V0H19.2607V0.987597H17.5733L23.268 12.6161L27.9515 13.9631V19.5164C29.0365 20.1781 29.7598 21.3644 29.7598 22.7182C29.7598 24.7938 28.0596 26.4766 25.9621 26.4766C24.0228 26.4766 22.423 25.0378 22.193 23.1799H7.56656C7.33653 25.0378 5.73681 26.4766 3.79746 26.4766C1.70013 26.4766 -5.14984e-05 24.7938 -5.14984e-05 22.7182C-5.14984e-05 21.9737 0.218639 21.2801 0.595831 20.6964ZM25.9621 24.386C26.893 24.386 27.6474 23.6393 27.6474 22.7182C27.6474 21.7969 26.893 21.0502 25.9621 21.0502C25.0314 21.0502 24.2768 21.7969 24.2768 22.7182C24.2768 23.6393 25.0314 24.386 25.9621 24.386ZM6.60377 16.0515L4.8431 9.67545H6.34775L8.13169 16.0515H11.8918V17.4816H11.0198V21.2745H19.2607V18.0973L17.7115 16.5964V13.7332L14.5546 11.2814L13.5069 12.4939L12.8162 11.9092L15.6218 8.66264L16.3123 9.24728L15.414 10.2869L18.426 12.6161H22.1592L16.4645 0.987597H3.86205V16.0515H6.60377ZM3.79746 24.386C4.72835 24.386 5.48285 23.6393 5.48285 22.7182C5.48285 21.7969 4.72835 21.0502 3.79746 21.0502C2.86683 21.0502 2.11232 21.7969 2.11232 22.7182C2.11232 23.6393 2.86683 24.386 3.79746 24.386Z" fill="#45413E"/>
</svg>
