<svg width="40" height="35" viewBox="0 0 40 35" fill="none" xmlns="http://www.w3.org/2000/svg">
<path d="M0.787342 27.359V21.2188H3.78586V1.30553H1.40416V0H25.4608V1.30553H23.2303L30.7582 16.6775L36.9495 18.4582V25.7992C38.3838 26.6739 39.3398 28.2421 39.3398 30.0317C39.3398 32.7755 37.0923 35 34.3196 35C31.756 35 29.6413 33.098 29.3372 30.6421H10.0021C9.69804 33.098 7.58332 35 5.01965 35C2.24715 35 -0.000370026 32.7755 -0.000370026 30.0317C-0.000370026 29.0476 0.288723 28.1307 0.787342 27.359ZM34.3196 32.2365C35.5502 32.2365 36.5474 31.2494 36.5474 30.0317C36.5474 28.8138 35.5502 27.8267 34.3196 27.8267C33.0892 27.8267 32.0918 28.8138 32.0918 30.0317C32.0918 31.2494 33.0892 32.2365 34.3196 32.2365ZM8.72937 21.2188L6.40191 12.7902H8.39095L10.7492 21.2188H15.7197V23.1094H14.5671V28.1233H25.4608V23.9233L23.4129 21.9392V18.1542L19.2398 14.9132L17.8548 16.5159L16.9418 15.7431L20.6505 11.4513L21.5634 12.2242L20.3758 13.5986L24.3575 16.6775H29.2925L21.7645 1.30553H5.10503V21.2188H8.72937ZM5.01965 32.2365C6.25021 32.2365 7.24762 31.2494 7.24762 30.0317C7.24762 28.8138 6.25021 27.8267 5.01965 27.8267C3.78943 27.8267 2.79202 28.8138 2.79202 30.0317C2.79202 31.2494 3.78943 32.2365 5.01965 32.2365Z" fill="white"/>
</svg>
