<svg width="57" height="57" viewBox="0 0 57 57" fill="none" xmlns="http://www.w3.org/2000/svg">
<path d="M0 0.940735H7.37975L9.0514 8.93994M49.9177 39.2527H15.3861L14.0957 33.0779M9.0514 8.93994H55L51.0316 33.0779H14.0957M9.0514 8.93994L14.0957 33.0779" stroke="#D8D8D8" stroke-width="1.84616"/>
<path d="M18.8662 8.93884V33.147" stroke="#D8D8D8" stroke-width="1.84616"/>
<path d="M26.873 9.01361V32.9411" stroke="#D8D8D8" stroke-width="1.84616"/>
<path d="M37.1074 33.0814V9.01361" stroke="#D8D8D8" stroke-width="1.84616"/>
<path d="M44.7666 8.93884V32.9365" stroke="#D8D8D8" stroke-width="1.84616"/>
<path d="M53.7466 16.6577H10.582M52.215 25.0077H12.3922" stroke="#D8D8D8" stroke-width="1.84616"/>
<path d="M46.9757 51.6021C46.9757 53.8506 45.1691 55.661 42.9557 55.661C40.7424 55.661 38.9358 53.8506 38.9358 51.6021C38.9358 49.3536 40.7424 47.5433 42.9557 47.5433C45.1691 47.5433 46.9757 49.3536 46.9757 51.6021Z" stroke="#D8D8D8" stroke-width="1.84616"/>
<path d="M24.837 51.6021C24.837 53.8506 23.0304 55.661 20.8171 55.661C18.6037 55.661 16.7971 53.8506 16.7971 51.6021C16.7971 49.3536 18.6037 47.5433 20.8171 47.5433C23.0304 47.5433 24.837 49.3536 24.837 51.6021Z" stroke="#D8D8D8" stroke-width="1.84616"/>
</svg>
