<svg width="84" height="85" viewBox="0 0 84 85" fill="none" xmlns="http://www.w3.org/2000/svg">
<path d="M82.4918 13.8913H14.0732L21.5843 49.5525H76.5828L82.4918 13.8913Z" fill="white"/>
<path d="M0.595459 2.07336H11.5841L14.0732 13.8913M74.9242 58.6751H23.5057L21.5843 49.5525M14.0732 13.8913H82.4918L76.5828 49.5525H21.5843M14.0732 13.8913L21.5843 49.5525" stroke="white" stroke-width="2.48799"/>
<path d="M28.689 13.8913V49.6562" stroke="white" stroke-width="2.48799"/>
<path d="M40.6107 13.9949V49.3451" stroke="white" stroke-width="2.48799"/>
<path d="M55.8495 49.5525V13.9949" stroke="white" stroke-width="2.48799"/>
<path d="M67.2529 13.8913V49.3451" stroke="white" stroke-width="2.48799"/>
<path d="M80.6258 25.2946H16.3527M78.3451 37.6308H19.048" stroke="white" stroke-width="2.48799"/>
<path d="M28.5853 14.928V48.5158" stroke="white" stroke-width="2.48799"/>
<path d="M40.6107 14.928V48.3085" stroke="white" stroke-width="2.48799"/>
<path d="M55.7459 48.5158V14.928" stroke="white" stroke-width="2.48799"/>
<path d="M67.1492 14.928V48.3085" stroke="white" stroke-width="2.48799"/>
<path d="M79.3818 25.2946H18.2187M77.3084 37.6308H20.1883" stroke="white" stroke-width="2.48799"/>
<circle cx="64.5575" cy="76.9204" r="6.11631" fill="white" stroke="white" stroke-width="2.48799"/>
<circle cx="31.5917" cy="76.9204" r="6.11631" fill="white" stroke="white" stroke-width="2.48799"/>
</svg>
