<svg width="85" height="84" viewBox="0 0 85 84" fill="none" xmlns="http://www.w3.org/2000/svg">
<rect x="17.3528" y="7.91532" width="50.3818" height="11.818" rx="2.90266" stroke="white" stroke-width="2.48799"/>
<rect x="8.64475" y="68.0417" width="68.2124" height="8.50063" rx="2.90266" stroke="white" stroke-width="2.48799"/>
<rect x="14.4501" y="44.1985" width="14.3059" height="5.39065" rx="1.86599" stroke="white" stroke-width="2.48799"/>
<rect x="35.598" y="44.1985" width="14.3059" height="5.39065" rx="1.86599" stroke="white" stroke-width="2.48799"/>
<rect x="56.3312" y="44.1985" width="14.3059" height="5.39065" rx="1.86599" stroke="white" stroke-width="2.48799"/>
<rect x="14.4501" y="56.2238" width="14.3059" height="5.39065" rx="1.86599" stroke="white" stroke-width="2.48799"/>
<rect x="35.598" y="56.2238" width="14.3059" height="5.39065" rx="1.86599" stroke="white" stroke-width="2.48799"/>
<rect x="56.3312" y="56.2238" width="14.3059" height="5.39065" rx="1.86599" stroke="white" stroke-width="2.48799"/>
<path fill-rule="evenodd" clip-rule="evenodd" d="M70.8445 2.73202H14.4501C13.305 2.73202 12.3768 3.66028 12.3768 4.80534V22.6359C12.3768 23.781 13.305 24.7093 14.4501 24.7093H36.842V24.7092H38.9154H46.172H48.2453V24.7093H70.8445C71.9896 24.7093 72.9178 23.781 72.9178 22.6359V4.80534C72.9178 3.66028 71.9896 2.73202 70.8445 2.73202ZM14.4501 26.7826H36.842V33.8108H20.4627C13.0198 33.8108 6.9861 39.8445 6.9861 47.2874L6.98609 61.0476C3.55089 61.0476 0.766113 63.8323 0.766113 67.2675V77.3718C0.766113 80.807 3.5509 83.5918 6.9861 83.5918H78.1011C81.5363 83.5918 84.3211 80.807 84.3211 77.3718V67.2675C84.3211 63.9017 81.6477 61.1603 78.3085 61.051V47.2321C78.3085 39.8126 72.3113 33.7887 64.8919 33.7557L48.2453 33.6815V26.7826H70.8445C73.1347 26.7826 74.9912 24.9261 74.9912 22.6359V4.80534C74.9912 2.51521 73.1347 0.658691 70.8445 0.658691H14.4501C12.16 0.658691 10.3034 2.51521 10.3034 4.80534V22.6359C10.3034 24.9261 12.16 26.7826 14.4501 26.7826ZM48.2453 35.7548V37.1492V39.2225H46.172H38.9154H36.842V37.1492V35.8842H20.4627C14.1648 35.8842 9.05942 40.9896 9.05942 47.2874V61.0476L9.05944 63.1209H6.98609C4.69596 63.1209 2.83944 64.9774 2.83944 67.2675V77.3718C2.83944 79.6619 4.69596 81.5185 6.9861 81.5185H78.1011C80.3913 81.5185 82.2478 79.6619 82.2478 77.3718V67.2675C82.2478 64.9774 80.3913 63.1209 78.1011 63.1209H76.2352V58.6103L76.2352 47.2321C76.2352 40.9541 71.1606 35.8569 64.8827 35.829L48.2453 35.7548ZM38.9154 37.1492V26.7826H46.172V37.1492H38.9154Z" fill="white"/>
</svg>
