<svg width="84" height="84" viewBox="0 0 84 84" fill="none" xmlns="http://www.w3.org/2000/svg">
<path fill-rule="evenodd" clip-rule="evenodd" d="M14.129 26.7826H36.5209V33.8108H20.1416C12.6987 33.8108 6.66498 39.8445 6.66498 47.2874V61.0476C3.22978 61.0476 0.445007 63.8323 0.445007 67.2675V77.3718C0.445007 80.807 3.22978 83.5918 6.66498 83.5918H77.78C81.2152 83.5918 84 80.807 84 77.3718V67.2675C84 63.9017 81.3266 61.1603 77.9874 61.0509V47.2321C77.9874 39.8126 71.9902 33.7887 64.5708 33.7556L47.9241 33.6815V26.7826H70.5234C72.8135 26.7826 74.67 24.9261 74.67 22.6359V4.80534C74.67 2.51521 72.8135 0.658691 70.5234 0.658691H14.129C11.8388 0.658691 9.9823 2.51521 9.9823 4.80534V22.6359C9.9823 24.9261 11.8388 26.7826 14.129 26.7826ZM70.5234 2.73202H14.129C12.9839 2.73202 12.0556 3.66028 12.0556 4.80534V22.6359C12.0556 23.781 12.9839 24.7093 14.129 24.7093H70.5234C71.6685 24.7093 72.5967 23.781 72.5967 22.6359V4.80534C72.5967 3.66028 71.6685 2.73202 70.5234 2.73202ZM47.9241 35.7548V39.2225H36.5209V35.8842H20.1416C13.8437 35.8842 8.73831 40.9896 8.73831 47.2874V63.1209H6.66498C4.37485 63.1209 2.51833 64.9774 2.51833 67.2675V77.3718C2.51833 79.6619 4.37485 81.5185 6.66498 81.5185H77.78C80.0702 81.5185 81.9267 79.6619 81.9267 77.3718V67.2675C81.9267 64.9774 80.0702 63.1209 77.78 63.1209H75.914V47.2321C75.914 40.9541 70.8395 35.8569 64.5616 35.829L47.9241 35.7548ZM38.5942 26.7826H45.8508V37.1492H38.5942V26.7826Z" fill="white"/>
<path fill-rule="evenodd" clip-rule="evenodd" d="M14.129 2.73202H70.5234C71.6685 2.73202 72.5967 3.66028 72.5967 4.80534V22.6359C72.5967 23.781 71.6685 24.7093 70.5234 24.7093H14.129C12.9839 24.7093 12.0556 23.781 12.0556 22.6359V4.80534C12.0556 3.66028 12.9839 2.73202 14.129 2.73202ZM64.5107 6.67133H19.9343C17.6441 6.67133 15.7876 8.52785 15.7876 10.818V16.8306C15.7876 19.1208 17.6441 20.9773 19.9343 20.9773H64.5107C66.8009 20.9773 68.6574 19.1208 68.6574 16.8306V10.818C68.6574 8.52785 66.8009 6.67133 64.5107 6.67133Z" fill="white"/>
<path fill-rule="evenodd" clip-rule="evenodd" d="M36.5209 35.8842H20.1416C13.8437 35.8842 8.73831 40.9896 8.73831 47.2874V63.1209H6.66498C4.37485 63.1209 2.51833 64.9774 2.51833 67.2675V77.3718C2.51833 79.6619 4.37485 81.5185 6.66498 81.5185H77.78C80.0702 81.5185 81.9267 79.6619 81.9267 77.3718V67.2675C81.9267 64.9774 80.0702 63.1209 77.78 63.1209H75.914V47.2321C75.914 40.9541 70.8395 35.8569 64.5616 35.829L47.9241 35.7548V39.2225H36.5209V35.8842ZM73.6334 66.7978H11.2263C8.93617 66.7978 7.07965 68.6543 7.07965 70.9444V73.6397C7.07965 75.9299 8.93617 77.7864 11.2263 77.7864H73.6334C75.9235 77.7864 77.78 75.9299 77.78 73.6397V70.9444C77.78 68.6543 75.9235 66.7978 73.6334 66.7978ZM26.5689 42.9545H15.9949C14.2773 42.9545 12.885 44.3469 12.885 46.0645V47.7232C12.885 49.4408 14.2773 50.8332 15.9949 50.8332H26.5689C28.2865 50.8332 29.6789 49.4408 29.6789 47.7232V46.0645C29.6789 44.3469 28.2865 42.9545 26.5689 42.9545ZM47.7168 42.9545H37.1429C35.4253 42.9545 34.0329 44.3469 34.0329 46.0645V47.7232C34.0329 49.4408 35.4253 50.8332 37.1429 50.8332H47.7168C49.4344 50.8332 50.8268 49.4408 50.8268 47.7232V46.0645C50.8268 44.3469 49.4344 42.9545 47.7168 42.9545ZM68.4501 42.9545H57.8761C56.1585 42.9545 54.7661 44.3469 54.7661 46.0645V47.7232C54.7661 49.4408 56.1585 50.8332 57.8761 50.8332H68.4501C70.1677 50.8332 71.5601 49.4408 71.5601 47.7232V46.0645C71.5601 44.3469 70.1677 42.9545 68.4501 42.9545ZM26.5689 54.9798H15.9949C14.2773 54.9798 12.885 56.3722 12.885 58.0898V59.7485C12.885 61.466 14.2773 62.8584 15.9949 62.8584H26.5689C28.2865 62.8584 29.6789 61.466 29.6789 59.7485V58.0898C29.6789 56.3722 28.2865 54.9798 26.5689 54.9798ZM47.7168 54.9798H37.1429C35.4253 54.9798 34.0329 56.3722 34.0329 58.0898V59.7485C34.0329 61.466 35.4253 62.8584 37.1429 62.8584H47.7168C49.4344 62.8584 50.8268 61.466 50.8268 59.7485V58.0898C50.8268 56.3722 49.4344 54.9798 47.7168 54.9798ZM68.4501 54.9798H57.8761C56.1585 54.9798 54.7661 56.3722 54.7661 58.0898V59.7485C54.7661 61.466 56.1585 62.8584 57.8761 62.8584H68.4501C70.1677 62.8584 71.5601 61.466 71.5601 59.7485V58.0898C71.5601 56.3722 70.1677 54.9798 68.4501 54.9798Z" fill="white"/>
<path d="M45.8508 26.7826H38.5942V37.1492H45.8508V26.7826Z" fill="white"/>
</svg>
