<svg width="84" height="84" viewBox="0 0 84 84" fill="none" xmlns="http://www.w3.org/2000/svg">
<rect x="16.464" y="16.2086" width="50.3818" height="50.5891" rx="9.12263" fill="white" stroke="white" stroke-width="2.48799"/>
<path d="M73.2731 22.8525C78.1189 23.0693 81.981 27.0665 81.981 31.9659V51.2478C81.981 56.1471 78.1189 60.1444 73.2731 60.3612V22.8525Z" fill="white" stroke="white" stroke-width="2.48799"/>
<path d="M10.0367 22.8525C5.19083 23.0693 1.32869 27.0665 1.32869 31.9659V51.2478C1.32869 56.1471 5.19083 60.1444 10.0367 60.3612V22.8525Z" fill="white" stroke="white" stroke-width="2.48799"/>
<path d="M60.2019 10.1959C59.9851 5.35012 55.9878 1.48798 51.0885 1.48798L31.8066 1.48798C26.9072 1.48798 22.91 5.35012 22.6932 10.1959L60.2019 10.1959Z" fill="white" stroke="white" stroke-width="2.48799"/>
<path d="M60.2019 73.225C59.9851 78.0708 55.9878 81.933 51.0885 81.933L31.8066 81.933C26.9072 81.933 22.91 78.0708 22.6932 73.225L60.2019 73.225Z" fill="white" stroke="white" stroke-width="2.48799"/>
</svg>
