<svg width="84" height="84" viewBox="0 0 84 84" fill="none" xmlns="http://www.w3.org/2000/svg">
<rect x="16.5904" y="16.3186" width="50.3818" height="50.5891" rx="9.12263" stroke="white" stroke-width="2.48799"/>
<path d="M73.3995 22.9625C78.2453 23.1793 82.1074 27.1765 82.1074 32.0759V51.3578C82.1074 56.2571 78.2453 60.2544 73.3995 60.4711V22.9625Z" stroke="white" stroke-width="2.48799"/>
<path d="M10.1631 22.9625C5.31725 23.1793 1.45511 27.1765 1.45511 32.0759V51.3578C1.45511 56.2571 5.31725 60.2544 10.1631 60.4711V22.9625Z" stroke="white" stroke-width="2.48799"/>
<path d="M60.3283 10.3059C60.1115 5.4601 56.1142 1.59797 51.2149 1.59797L31.933 1.59797C27.0337 1.59797 23.0364 5.4601 22.8196 10.3059L60.3283 10.3059Z" stroke="white" stroke-width="2.48799"/>
<path d="M60.3283 73.335C60.1115 78.1808 56.1142 82.043 51.2149 82.043L31.933 82.043C27.0337 82.043 23.0364 78.1808 22.8196 73.335L60.3283 73.335Z" stroke="white" stroke-width="2.48799"/>
</svg>
