<svg width="84" height="85" viewBox="0 0 84 85" fill="none" xmlns="http://www.w3.org/2000/svg">
<rect x="10.3173" y="20.3186" width="62.4071" height="5.39065" stroke="white" stroke-width="2.48799"/>
<rect x="10.3173" y="35.2465" width="38.5638" height="5.39065" stroke="white" stroke-width="2.48799"/>
<rect x="61.1138" y="35.2465" width="11.6106" height="5.39065" stroke="white" stroke-width="2.48799"/>
<rect x="61.1138" y="47.0645" width="11.6106" height="5.39065" stroke="white" stroke-width="2.48799"/>
<rect x="61.1138" y="59.2971" width="11.6106" height="5.39065" stroke="white" stroke-width="2.48799"/>
<rect x="61.1138" y="71.115" width="11.6106" height="5.39065" stroke="white" stroke-width="2.48799"/>
<rect x="10.3173" y="47.2718" width="41.4665" height="5.39065" stroke="white" stroke-width="2.48799"/>
<rect x="10.3173" y="59.2971" width="32.5512" height="5.39065" stroke="white" stroke-width="2.48799"/>
<rect x="10.3173" y="71.115" width="41.4665" height="5.39065" stroke="white" stroke-width="2.48799"/>
<path d="M9.16976 6.91849L12.1948 2.46049L16.1112 7.02956L17.046 8.12018L17.9919 7.03916L22.1156 2.32628L26.0548 7.01971L27.0744 8.2346L28.0114 6.95486L31.3247 2.4293L35.1774 7.01971L36.1012 8.12038L37.0582 7.0485L41.2945 2.30389L45.3451 7.02956L46.3427 8.19343L47.2762 6.97761L50.7585 2.44256L54.3303 6.98855L55.2976 8.21957L56.2782 6.99921L60.0235 2.33846L64.2289 7.0485L65.1568 8.0878L66.0848 7.0485L70.3008 2.32659L74.1475 7.0096L75.0498 8.10804L76.0189 7.06805L79.4669 3.36779L81.8471 5.35131V82.933H1.40208V5.21904L2.903 3.41793L7.33683 7.16963L8.39294 8.06326L9.16976 6.91849Z" stroke="white" stroke-width="2.48799"/>
</svg>
