<svg width="84" height="84" viewBox="0 0 84 84" fill="none" xmlns="http://www.w3.org/2000/svg">
<path fill-rule="evenodd" clip-rule="evenodd" d="M9.83693 18.6599H74.732V26.5386H9.83693V18.6599ZM12.3249 21.1479H72.244V24.0506H12.3249V21.1479Z" fill="white"/>
<path fill-rule="evenodd" clip-rule="evenodd" d="M9.83693 33.5879H50.8888V41.4665H9.83693V33.5879ZM12.3249 36.0759H48.4008V38.9785H12.3249V36.0759Z" fill="white"/>
<path fill-rule="evenodd" clip-rule="evenodd" d="M60.6334 33.5879V41.4665H74.732V33.5879H60.6334ZM72.244 36.0759H63.1214V38.9785H72.244V36.0759Z" fill="white"/>
<path fill-rule="evenodd" clip-rule="evenodd" d="M60.6334 45.4058H74.732V53.2844H60.6334V45.4058ZM63.1214 47.8938H72.244V50.7965H63.1214V47.8938Z" fill="white"/>
<path fill-rule="evenodd" clip-rule="evenodd" d="M60.6334 57.6384V65.5171H74.732V57.6384H60.6334ZM72.244 60.1264H63.1214V63.0291H72.244V60.1264Z" fill="white"/>
<path fill-rule="evenodd" clip-rule="evenodd" d="M60.6334 69.4564H74.732V77.335H60.6334V69.4564ZM63.1214 71.9444H72.244V74.847H63.1214V71.9444Z" fill="white"/>
<path fill-rule="evenodd" clip-rule="evenodd" d="M9.83693 45.6131V53.4918H53.7914V45.6131H9.83693ZM51.3034 48.1011H12.3249V51.0038H51.3034V48.1011Z" fill="white"/>
<path fill-rule="evenodd" clip-rule="evenodd" d="M9.83693 57.6384H44.8761V65.5171H9.83693V57.6384ZM12.3249 60.1264H42.3881V63.0291H12.3249V60.1264Z" fill="white"/>
<path fill-rule="evenodd" clip-rule="evenodd" d="M9.83693 69.4564V77.335H53.7914V69.4564H9.83693ZM51.3034 71.9444H12.3249V74.847H51.3034V71.9444Z" fill="white"/>
<path fill-rule="evenodd" clip-rule="evenodd" d="M8.90393 5.80531L12.8432 0L17.8192 5.80531L22.8989 0L27.7712 5.80531L32.0215 0L36.8938 5.80531L42.0771 0L47.0531 5.80531L51.5108 0L56.0721 5.80531L60.7371 0L65.9204 5.80531L71.1037 0L75.8723 5.80531L80.1226 1.24399L83.8546 4.35398V83.7623H0.921631V4.35398L3.51329 1.24399L8.90393 5.80531ZM80.3382 4.66224L81.3666 5.5193V81.2743H3.40962V5.25476L3.81982 4.76252L9.40906 9.49187L13.0735 4.09165L17.7998 9.60571L22.8595 3.82322L27.9047 9.83456L32.1551 4.02925L36.8356 9.60611L42.0389 3.77844L47.1593 9.75222L51.5333 4.05578L56.0502 9.80449L60.837 3.84757L65.9204 9.54094L71.0249 3.82383L75.7544 9.58143L80.3382 4.66224Z" fill="white"/>
<path fill-rule="evenodd" clip-rule="evenodd" d="M81.3666 5.5193L80.3382 4.66224L75.7544 9.58143L71.0249 3.82383L65.9204 9.54094L60.837 3.84757L56.0502 9.80449L51.5333 4.05578L47.1593 9.75222L42.0389 3.77844L36.8356 9.60611L32.1551 4.02925L27.9047 9.83456L22.8595 3.82322L17.7998 9.60571L13.0735 4.09165L9.40906 9.49187L3.81982 4.76252L3.40962 5.25476V81.2743H81.3666V5.5193ZM9.83693 18.6599H74.732V26.5386H9.83693V18.6599ZM9.83693 33.5879H50.8888V41.4665H9.83693V33.5879ZM74.732 33.5879H60.6334V41.4665H74.732V33.5879ZM60.6334 45.4058H74.732V53.2844H60.6334V45.4058ZM74.732 57.6384H60.6334V65.5171H74.732V57.6384ZM60.6334 69.4564H74.732V77.335H60.6334V69.4564ZM53.7914 45.6131H9.83693V53.4918H53.7914V45.6131ZM9.83693 57.6384H44.8761V65.5171H9.83693V57.6384ZM53.7914 69.4564H9.83693V77.335H53.7914V69.4564Z" fill="white"/>
</svg>
