<svg width="115" height="60" viewBox="0 0 115 60" fill="none" xmlns="http://www.w3.org/2000/svg">
<path fill-rule="evenodd" clip-rule="evenodd" d="M17.492 47.7726H18.7362H19.9804H92.5661H93.8105H95.0547C95.0457 47.3555 95.0317 46.9408 95.0127 46.5286C94.9935 46.1114 94.9692 45.6967 94.9398 45.2846C93.4759 24.7168 79.518 10.4427 61.9014 8.06899C61.9014 8.06899 61.6155 5.40227 60.6574 4.02527C59.3426 2.13575 57.8794 0.742569 55.5777 0.708687C53.4939 0.678013 52.2551 1.60178 50.9127 3.19594C49.6339 4.71461 49.1504 8.06899 49.1504 8.06899C31.3234 10.3304 18.8278 24.5977 17.5862 45.2846C17.5615 45.6967 17.5412 46.1114 17.5255 46.5286C17.5099 46.9408 17.4988 47.3555 17.492 47.7726ZM51.613 8.42396L51.6129 8.42466L51.6128 8.4253L51.6126 8.42634L51.6126 8.42648L51.6124 8.42755L51.3427 10.2988L49.4635 10.5372C33.069 12.6169 21.3061 25.668 20.0785 45.2846H92.4453C90.9951 25.9182 77.8956 12.7346 61.5691 10.5347L59.6355 10.2742L59.428 8.33838L59.428 8.33813L59.4278 8.33663L59.4277 8.33553L59.4276 8.33489L59.4276 8.33419L59.4268 8.32823C59.4255 8.31683 59.423 8.29642 59.4194 8.26794C59.4121 8.21085 59.4001 8.12212 59.3827 8.00911C59.3476 7.78105 59.2923 7.46488 59.2129 7.11654C59.0338 6.33106 58.8051 5.71935 58.6151 5.44627C57.4335 3.74801 56.6055 3.21208 55.5411 3.19641C54.9123 3.18715 54.5304 3.31323 54.2119 3.49727C53.8403 3.71193 53.4142 4.08788 52.8159 4.79848C52.5521 5.11174 52.2225 5.86687 51.9522 6.85714C51.8323 7.29629 51.7454 7.69959 51.6888 7.99289C51.6607 8.13835 51.6406 8.25375 51.6281 8.32934C51.6218 8.36707 51.6175 8.39466 51.615 8.41089L51.613 8.42396Z" fill="white"/>
<rect x="9.86092" y="52.9558" width="92.6776" height="5.59798" rx="2.79899" stroke="white" stroke-width="2.48799"/>
</svg>
