<svg width="96" height="60" viewBox="0 0 96 60" fill="none" xmlns="http://www.w3.org/2000/svg">
<path d="M85.2996 46.1873C85.2813 45.7998 85.2585 45.4145 85.2312 45.0316C83.807 25.0213 70.2702 11.2515 53.2675 8.96054L52.3007 8.83027L85.2996 46.1873ZM85.2996 46.1873H10.3026C10.3178 45.7951 10.337 45.4052 10.3603 45.0178C11.5719 24.8301 23.6981 11.1362 40.8392 8.96179L41.7788 8.8426L41.9138 7.90605L41.9139 7.90574L41.9139 7.9055L41.9139 7.90517L41.9145 7.90159L41.9178 7.87961C41.921 7.85903 41.9261 7.82684 41.9331 7.78431C41.9473 7.69917 41.9693 7.57299 41.9996 7.41571C42.0606 7.09996 42.1543 6.66493 42.2844 6.18825C42.5599 5.1789 42.945 4.1922 43.3966 3.6559C44.0313 2.90206 44.567 2.39934 45.1218 2.07883C45.65 1.77362 46.2563 1.59894 47.0917 1.61124C48.7747 1.63601 49.9203 2.60057 51.1685 4.39446L52.1896 3.68396L51.1685 4.39446C51.503 4.87525 51.7729 5.68657 51.958 6.49871C52.0456 6.88258 52.106 7.22886 52.1445 7.47865C52.1636 7.60303 52.1771 7.70217 52.1856 7.76852C52.1898 7.80166 52.1928 7.82653 52.1946 7.84216L52.1965 7.85853L52.1967 7.86028L52.1967 7.86062L52.1968 7.86089L52.1968 7.86126L85.2996 46.1873ZM4.19215 52.6144H91.2718C92.8176 52.6144 94.0708 53.8676 94.0708 55.4134C94.0708 56.9593 92.8176 58.2124 91.2718 58.2124H4.19216C2.64632 58.2124 1.39316 56.9593 1.39316 55.4134C1.39316 53.8676 2.64631 52.6144 4.19215 52.6144Z" fill="white" stroke="white" stroke-width="2.48799"/>
</svg>
