<svg width="85" height="63" viewBox="0 0 85 63" fill="none" xmlns="http://www.w3.org/2000/svg">
<path d="M18.12 60.5866C18.12 60.5866 17.963 52.2112 17.963 50.5749C17.963 48.9386 29.5078 40.7922 29.5078 40.7922V37.0253C29.5078 34.4046 31.4222 30.7257 31.4222 30.7257C31.4222 30.7257 33.4236 29.5803 33.4236 27.6986C33.4236 25.6533 32.2053 24.9988 32.2053 24.9988C32.2053 24.9988 32.5534 19.8445 31.4222 16.8174C30.1625 13.4466 26.4622 13.2165 23.6776 13.217C20.8931 13.2165 17.0385 13.4466 15.7788 16.8174C14.6476 19.8445 14.9956 24.9988 14.9956 24.9988C14.9956 24.9988 13.7774 25.6533 13.7774 27.6986C13.7774 29.5803 15.7788 30.7257 15.7788 30.7257C15.7788 30.7257 17.2401 34.4441 17.6932 37.0254C18.0891 39.2815 17.6932 42.0149 17.6932 42.0149C17.6932 42.0149 2.12769 50.769 2.12769 52.4052V60.5866H18.12Z" fill="white"/>
<path d="M82.9875 61.3168V50.9502C82.9875 48.8768 60.4522 37.7845 60.4522 37.7845C60.4522 37.7845 59.9796 34.321 60.4522 31.4622C60.9928 28.1915 62.7369 23.4799 62.7369 23.4799C62.7369 23.4799 65.1254 22.0286 65.1254 19.6443C65.1254 17.0526 63.6715 16.2233 63.6715 16.2233C63.6715 16.2233 64.0869 9.69233 62.7369 5.85668C61.2568 1.65162 56.9535 1.30393 53.6494 1.29475C50.3454 1.304 46.0429 1.65205 44.563 5.85668C43.2129 9.69233 43.6283 16.2233 43.6283 16.2233C43.6283 16.2233 42.1744 17.0526 42.1744 19.6443C42.1744 22.0286 44.563 23.4799 44.563 23.4799C44.563 23.4799 46.307 28.1915 46.8476 31.4622C47.3202 34.321 46.8476 37.7845 46.8476 37.7845C46.8476 37.7845 24.3123 48.8768 24.3123 50.9502V61.3168H82.9875Z" fill="white"/>
<path d="M18.12 60.5866C18.12 60.5866 17.963 52.2112 17.963 50.5749C17.963 48.9386 29.5078 40.7922 29.5078 40.7922V37.0253C29.5078 34.4046 31.4222 30.7257 31.4222 30.7257C31.4222 30.7257 33.4236 29.5803 33.4236 27.6986C33.4236 25.6533 32.2053 24.9988 32.2053 24.9988C32.2053 24.9988 32.5534 19.8445 31.4222 16.8174C30.1625 13.4466 26.4622 13.2165 23.6776 13.217C20.8931 13.2165 17.0385 13.4466 15.7788 16.8174C14.6476 19.8445 14.9956 24.9988 14.9956 24.9988C14.9956 24.9988 13.7774 25.6533 13.7774 27.6986C13.7774 29.5803 15.7788 30.7257 15.7788 30.7257C15.7788 30.7257 17.2401 34.4441 17.6932 37.0254C18.0891 39.2815 17.6932 42.0149 17.6932 42.0149C17.6932 42.0149 2.12769 50.769 2.12769 52.4052V60.5866H18.12ZM18.12 60.5866L18.1195 60.5587M53.6494 1.29475C50.3454 1.304 46.0429 1.65205 44.563 5.85668C43.2129 9.69233 43.6283 16.2233 43.6283 16.2233C43.6283 16.2233 42.1744 17.0526 42.1744 19.6443C42.1744 22.0286 44.563 23.4799 44.563 23.4799C44.563 23.4799 46.307 28.1915 46.8476 31.4622C47.3202 34.321 46.8476 37.7845 46.8476 37.7845C46.8476 37.7845 24.3123 48.8768 24.3123 50.9502V61.3168H82.9875V50.9502C82.9875 48.8768 60.4522 37.7845 60.4522 37.7845C60.4522 37.7845 59.9796 34.321 60.4522 31.4622C60.9928 28.1915 62.7369 23.4799 62.7369 23.4799C62.7369 23.4799 65.1254 22.0286 65.1254 19.6443C65.1254 17.0526 63.6715 16.2233 63.6715 16.2233C63.6715 16.2233 64.0869 9.69233 62.7369 5.85668C61.2568 1.65162 56.9535 1.30393 53.6494 1.29475ZM53.6494 1.29475C53.7017 1.29461 53.7538 1.29455 53.8056 1.29456M53.6494 1.29475C53.5974 1.29461 53.5457 1.29455 53.4942 1.29456" stroke="white" stroke-width="2.48799"/>
</svg>
