<svg width="48" height="48" viewBox="0 0 48 48" fill="none" xmlns="http://www.w3.org/2000/svg">
<path d="M0.282004 28.8685C0.0494085 28.5513 0.312023 27.8761 0.312023 27.8761L10.4539 22.8784C10.4539 22.8784 11.6864 20.2693 10.5539 19.5705C8.86297 18.5271 8.94302 15.881 8.94302 15.881C8.94302 15.881 8.31288 10.3761 9.18318 7.94212C9.70917 6.47109 10.8624 5.81622 12.361 5.38733C14.1645 4.87119 15.436 4.84481 17.1798 5.52948C19.1162 6.28977 19.7507 6.77087 20.1975 8.26747C21.0382 11.083 19.9574 16.2064 19.9574 16.2064C19.9574 16.2064 19.1689 19.4937 18.1263 19.7942C16.8388 20.1652 18.0262 23.1021 18.0262 23.1021L28.1921 28.6997C28.1921 28.6997 28.3955 29.3762 28.1621 29.692C26.7252 31.6359 24.9024 32.349 22.1906 33.4886C19.0731 34.7988 16.8254 35.1708 13.4238 35.026C10.2873 34.8925 8.44247 34.4188 5.6691 33.0006C3.14342 31.7091 1.27458 30.2219 0.282004 28.8685Z" fill="white"/>
<path d="M47.7138 28.8685C47.9464 28.5513 47.6838 27.8761 47.6838 27.8761L37.542 22.8784C37.542 22.8784 36.3095 20.2693 37.4419 19.5705C39.1329 18.5271 39.0528 15.881 39.0528 15.881C39.0528 15.881 39.683 10.3761 38.8127 7.94212C38.2867 6.47109 37.1335 5.81622 35.6348 5.38733C33.8313 4.87119 32.5599 4.84481 30.8161 5.52948C28.8797 6.28977 28.2452 6.77087 27.7983 8.26747C26.9576 11.083 28.0385 16.2064 28.0385 16.2064C28.0385 16.2064 28.8269 19.4937 29.8695 19.7942C31.157 20.1652 29.9696 23.1021 29.9696 23.1021L19.8038 28.6997C19.8038 28.6997 19.6003 29.3762 19.8338 29.692C21.2706 31.6359 23.0935 32.349 25.8052 33.4886C28.9227 34.7988 31.1705 35.1708 34.572 35.026C37.7085 34.8925 39.5534 34.4188 42.3268 33.0006C44.8524 31.7091 46.7213 30.2219 47.7138 28.8685Z" fill="white"/>
<path d="M4.07297 37.6817C3.72147 37.2131 4.07297 36.1817 4.07297 36.1817L18.573 28.1817C18.573 28.1817 20.2472 24.1864 18.573 23.1817C16.073 21.6814 16.073 17.6817 16.073 17.6817C16.073 17.6817 14.9167 9.39624 16.073 5.68168C16.7718 3.43666 18.4167 2.39624 20.573 1.68167C23.1679 0.821748 25.012 0.725185 27.573 1.68139C30.4167 2.74319 31.3587 3.44145 32.073 5.68168C33.4167 9.89624 32.073 17.6817 32.073 17.6817C32.073 17.6817 31.073 22.6814 29.573 23.1817C27.7207 23.7995 29.573 28.1817 29.573 28.1817L44.573 36.1817C44.573 36.1817 44.8979 37.1943 44.573 37.6817C42.573 40.6814 39.9587 41.8396 36.073 43.6817C31.6059 45.7994 28.3599 46.4614 23.4167 46.3945C18.8587 46.3328 16.1604 45.6997 12.073 43.6817C8.35061 41.8439 5.57297 39.6814 4.07297 37.6817Z" fill="white" stroke="#007AFF" stroke-width="1.5"/>
</svg>
