<svg width="85" height="63" viewBox="0 0 85 63" fill="none" xmlns="http://www.w3.org/2000/svg">
<path d="M53.303 61.3168H83.004C83.004 61.3168 83.004 53.0235 83.004 50.9502C83.004 48.8768 60.4686 37.7845 60.4686 37.7845C60.4686 37.7845 59.996 34.321 60.4686 31.4622C61.0093 28.1915 62.7533 23.4799 62.7533 23.4799C62.7533 23.4799 65.1418 22.0286 65.1418 19.6443C65.1418 17.0526 63.688 16.2233 63.688 16.2233C63.688 16.2233 64.1034 9.69233 62.7533 5.85668C61.25 1.58547 56.8339 1.29394 53.5107 1.29456" stroke="white" stroke-width="2.48799"/>
<path d="M54.0298 61.3168H24.3288C24.3288 61.3168 24.3288 53.0235 24.3288 50.9502C24.3288 48.8768 46.8642 37.7845 46.8642 37.7845C46.8642 37.7845 47.3367 34.321 46.8642 31.4622C46.3235 28.1915 44.5795 23.4799 44.5795 23.4799C44.5795 23.4799 42.1909 22.0286 42.1909 19.6443C42.1909 17.0526 43.6448 16.2233 43.6448 16.2233C43.6448 16.2233 43.2294 9.69233 44.5795 5.85668C46.0828 1.58547 50.4989 1.29394 53.8221 1.29456" stroke="white" stroke-width="2.48799"/>
<path d="M18.1364 60.5866C18.1364 60.5866 17.9794 52.2112 17.9794 50.5749C17.9794 48.9387 29.5241 40.7923 29.5241 40.7923C29.5241 40.7923 29.5241 39.3409 29.5241 37.0254C29.5241 34.4046 31.4385 30.7258 31.4385 30.7258C31.4385 30.7258 33.4399 29.5804 33.4399 27.6987C33.4399 25.6533 32.2217 24.9988 32.2217 24.9988C32.2217 24.9988 32.5697 19.8446 31.4385 16.8175C30.1788 13.4466 26.4785 13.2166 23.694 13.217" stroke="white" stroke-width="2.48799"/>
<path d="M19.0967 60.5866H2.14405C2.14405 60.5866 2.14405 54.0416 2.14405 52.4053C2.14405 50.769 17.7095 42.015 17.7095 42.015C17.7095 42.015 18.1055 39.2815 17.7095 37.0254C17.2565 34.4441 15.7951 30.7258 15.7951 30.7258C15.7951 30.7258 13.7937 29.5804 13.7937 27.6987C13.7937 25.6533 15.012 24.9988 15.012 24.9988C15.012 24.9988 14.6639 19.8446 15.7951 16.8175C17.0548 13.4466 20.922 13.2166 23.7065 13.217" stroke="white" stroke-width="2.48799"/>
</svg>
